<svg xmlns="http://www.w3.org/2000/svg" width="32" height="32" viewBox="0 0 1024 1024">
  <rect width="1024" height="1024" fill="#f4f3eb" rx="180"/>
  <path fill="#1d2d3b" fill-rule="evenodd" d="M687.5 668 L637 667.5 L636.5 543 L547 543 L546 541 L591.5 480.5 C606.17 480.5 630.98 481.87 635.5 480.5 L637 479.5 L637.5 356 C658 356 694.39 354.09 699 356 L700 357 C700 460.33 704.62 655.84 700 667 L699 668 L688 668 Z M388.5 668 C368 668 331.61 669.91 327 668 L326 667 C326 563.67 321.38 368.16 326 357 L327 356 C369.83 356 433.42 355.29 455.5 356 L471 357 L484.5 360 L495.5 364 L503.5 368 L511.5 373 L519.5 379 L526.5 386 L533.5 394 L538.5 401.5 L542.5 408.5 L545.5 415.5 L549.5 426 L551 432 L552.5 445.5 L553 456 L552.5 463.5 L551.5 471.5 L549 483 L545.5 491.5 L543 497 L537.5 507 L531.5 514.5 L521.5 525 L513.5 531.5 L503.5 538 L493.5 543 L484 546 L484 547.5 C484.81 549.98 491.33 557.5 495 562.5 L495 564 C493.34 569.13 470 598.67 457.5 616 L409 549.5 L389 549.5 L388.5 668 Z M457 487 L464.5 486.5 L468.5 485 L473.5 482.5 L480.5 476.5 L483.5 473 L486.5 467 L488.5 458 L488.5 451 L488 444.5 L485 437 L481 431 L478.5 428.5 L474.5 425 L469.5 422 L464 420 L458.5 419 C448.39 418.09 412.5 419 389.5 419 L389 486 L389.5 487 C393.21 489.29 434.5 487 457 487 L457 487 Z M559 668 C537.83 668 502.4 670.86 495.5 668 C493.87 667.33 494.15 666.83 493 665.5 C489.6 661.55 476.24 643.84 474.5 640.5 L474 639 L512.5 587 L571 667 L571 668 C570.1 668.9 563 668 559 668 L559 668 Z"/>
</svg>